<svg xmlns="http://www.w3.org/2000/svg" height="800" width="1200" viewBox="-67.365 -36.7285 583.83 220.371"><path d="M227.9 19.75v50.798H239v-16.1h.2l11 16.1h13.6l-13.4-18.4 12.9-15.1h-13.4l-10.7 13.6h-.2V19.749zm-119.7 3.199v47.699h18.9c2.3 0 4.5-.2 6.7-.7 2.2-.5 4.1-1.2 5.8-2.3 1.7-1.1 3.1-2.499 4.1-4.299 1-1.8 1.5-4 1.5-6.6 0-1.6-.3-3-.8-4.4-.5-1.3-1.2-2.4-2.1-3.3-.9-.9-1.9-1.7-3.1-2.3-1.2-.6-2.5-1-3.8-1.2v-.1c2.3-.7 4.2-2 5.6-3.7 1.5-1.8 2.2-4.001 2.2-6.601 0-2.4-.5-4.4-1.5-6-1-1.5-2.2-2.8-3.8-3.7-1.5-.9-3.3-1.5-5.2-1.9-1.9-.4-3.8-.6-5.6-.6zm11.1 9.199h5.6c2.4 0 4.3.401 5.5 1.101 1.2.7 1.8 1.9 1.8 3.5 0 1.7-.6 2.999-1.7 3.899-1.2.9-2.8 1.3-5 1.3h-6.2zm47.1 3.8c-2.6 0-4.9.4-7.2 1.2-2.2.8-4.2 2-5.9 3.5-1.7 1.5-3 3.401-4 5.601s-1.5 4.699-1.5 7.399.5 5.2 1.5 7.4 2.3 4.1 4 5.6c1.7 1.6 3.6 2.701 5.9 3.601 2.3.9 4.7 1.3 7.2 1.3 2.6 0 5-.5 7.2-1.3 2.2-.9 4.2-2.101 5.9-3.601 1.7-1.5 3-3.4 4-5.6 1-2.2 1.5-4.7 1.5-7.4s-.5-5.199-1.5-7.399-2.3-4.101-4-5.601c-1.7-1.5-3.7-2.7-5.9-3.5-2.3-.8-4.6-1.2-7.2-1.2zm39.8 0c-2.6 0-4.9.4-7.2 1.2-2.2.8-4.2 2-5.9 3.5-1.7 1.5-3 3.401-4 5.601s-1.5 4.699-1.5 7.399.5 5.2 1.5 7.4 2.3 4.1 4 5.6c1.7 1.6 3.6 2.701 5.9 3.601 2.3.9 4.7 1.3 7.2 1.3 2.6 0 5-.5 7.2-1.3 2.2-.9 4.2-2.101 5.9-3.601 1.7-1.5 3-3.4 4-5.6 1-2.2 1.5-4.7 1.5-7.4s-.5-5.199-1.5-7.399-2.3-4.101-4-5.601c-1.7-1.5-3.7-2.7-5.9-3.5-2.3-.8-4.6-1.2-7.2-1.2zm-39.7 9.2c1.3 0 2.4.201 3.4.701 1 .5 1.8 1.1 2.5 1.9.6.8 1.1 1.7 1.5 2.7.3 1.1.5 2.099.5 3.199 0 1.1-.2 2.201-.5 3.201s-.8 1.999-1.5 2.799c-.7.8-1.5 1.5-2.5 2s-2.1.701-3.4.701c-1.3 0-2.4-.201-3.4-.701-1-.5-1.8-1.2-2.5-2s-1.2-1.799-1.5-2.799c-.3-1.1-.5-2.101-.5-3.201s.2-2.2.5-3.2c.4-1 .9-1.899 1.5-2.699.7-.8 1.5-1.4 2.5-1.9s2.1-.701 3.4-.701zm39.8 0c1.3 0 2.4.201 3.4.701 1 .5 1.8 1.1 2.5 1.9.6.8 1.1 1.7 1.5 2.7.3 1.1.5 2.099.5 3.199 0 1.1-.2 2.201-.5 3.201s-.8 1.999-1.5 2.799c-.7.8-1.5 1.5-2.5 2s-2.1.701-3.4.701c-1.3 0-2.4-.201-3.4-.701-1-.5-1.8-1.2-2.5-2s-1.2-1.799-1.5-2.799c-.3-1.1-.5-2.101-.5-3.201s.2-2.2.5-3.2c.4-1 .9-1.899 1.5-2.699.7-.8 1.5-1.4 2.5-1.9s2.1-.701 3.4-.701zm-87.1 5.3h6.4c2.5 0 4.4.3 5.9 1.1s2.2 2.1 2.2 4.1c0 1.1-.2 2.1-.8 3-.5.7-1.1 1.301-1.9 1.701-.8.4-1.6.599-2.6.799-1 .1-1.9.201-2.8.201h-6.4zm191.6 24.2c-.9 0-1.7.2-2.5.5-.7.3-1.4.8-2 1.3-.5.5-1 1.201-1.3 1.901-.3.7-.5 1.499-.5 2.299 0 1.7.6 3.1 1.8 4.3 1.2 1.2 2.7 1.801 4.5 1.801.9 0 1.7-.2 2.5-.5s1.4-.8 2-1.3c.5-.5 1-1.2 1.3-1.9.3-.8.5-1.501.5-2.401 0-.9-.2-1.699-.5-2.299-.3-.7-.7-1.4-1.3-1.9-.5-.6-1.2-1.001-2-1.301-.8-.3-1.7-.5-2.5-.5zm-202.7 2.5v47.701h17.7c3.3 0 6.5-.5 9.7-1.4 3.2-.9 6.1-2.401 8.6-4.301 2.5-2 4.6-4.5 6.1-7.5s2.3-6.599 2.3-10.799c0-4.5-.8-8.2-2.4-11.3-1.6-3.1-3.6-5.5-6.2-7.3-2.5-1.8-5.4-3.1-8.7-3.9-3.2-.8-6.5-1.201-9.9-1.201h-17.2zm217.3 5.4v8.801h-5.3v8.2h5.4v14.2c0 1.8.2 3.399.6 4.899.4 1.5 1.1 2.7 2 3.8 1 1 2.2 1.801 3.7 2.401 1.5.5 3.4.799 5.6.799 1.2 0 2.3-.099 3.5-.299 1.2-.2 2.1-.401 2.9-.701l-.1-8.1c-.4.2-.9.3-1.5.4-.6.1-1.2.1-1.7.1-1.6 0-2.7-.399-3.3-1.199-.6-.7-.9-1.9-.9-3.5v-12.8h7.8v-8.2h-7.9v-8.8h-10.8zm-206 4.4h5.7c1.9 0 3.8.3 5.7.7 1.9.5 3.5 1.2 5 2.3 1.5 1 2.6 2.4 3.5 4.2.9 1.8 1.3 4.001 1.3 6.701 0 2.6-.5 4.9-1.4 6.6-.9 1.8-2 3.2-3.5 4.3-1.4 1.1-3.1 1.8-5 2.3-1.9.5-3.8.7-5.9.7h-5.4zm169.1 3.1c-1.6 0-3.3.2-4.9.6-1.7.4-3.2 1.1-4.5 2-1.4.9-2.4 2.1-3.3 3.5-.9 1.4-1.3 3.101-1.3 5.101 0 1.5.3 2.9.9 4 .6 1.1 1.4 2 2.3 2.8.9.7 1.9 1.4 3.1 1.8 1.2.5 2.3.8 3.5 1.1 2.2.5 3.9 1 5 1.5s1.6 1.3 1.6 2.3c0 1.1-.4 1.9-1.3 2.3-.9.4-1.8.599-2.7.599-1.6 0-3.2-.4-4.6-1.1-1.4-.7-2.6-1.599-3.6-2.699l-6.2 6.5c1.8 1.7 4 3 6.6 3.9 2.6.9 5.3 1.3 8 1.3 1.7 0 3.4-.2 5.1-.6 1.7-.4 3.2-1 4.6-1.9 1.3-.9 2.4-2 3.3-3.5.9-1.4 1.3-3.2 1.3-5.3 0-1.6-.3-3-.9-4.2-.6-1.2-1.5-2.2-2.5-3-1.1-.8-2.2-1.401-3.5-1.901-1.3-.5-2.5-.8-3.8-1.1-2.2-.4-3.7-.899-4.7-1.299-.9-.4-1.4-1.1-1.4-2 0-1 .4-1.701 1.3-2.101.9-.4 1.9-.6 2.9-.6 1.3 0 2.6.3 3.8.9 1.3.6 2.3 1.3 3.2 2.2l6.2-6.399c-1.7-1.5-3.7-2.7-6.1-3.5-2.4-.8-4.9-1.2-7.4-1.2zm-35.3.1c-2.6 0-4.9.401-7.2 1.201-2.2.8-4.2 2-5.9 3.5-1.7 1.5-3 3.4-4 5.6-1 2.2-1.5 4.7-1.5 7.4s.5 5.2 1.5 7.4 2.3 4.1 4 5.6c1.7 1.6 3.6 2.7 5.9 3.6 2.3.9 4.7 1.3 7.2 1.3 2.6 0 5-.5 7.2-1.3 2.2-.9 4.2-2.1 5.9-3.6 1.7-1.5 3-3.4 4-5.6 1-2.2 1.5-4.7 1.5-7.4s-.5-5.1-1.5-7.4c-1-2.2-2.3-4.1-4-5.6-1.7-1.5-3.7-2.7-5.9-3.5-2.3-.8-4.6-1.201-7.2-1.201zm111.6 0c-2.6 0-4.9.401-7.2 1.201-2.2.8-4.2 2-5.9 3.5-1.7 1.5-3 3.4-4 5.6-1 2.2-1.5 4.7-1.5 7.4s.5 5.2 1.5 7.4 2.3 4.1 4 5.6c1.7 1.6 3.6 2.7 5.9 3.6 2.3.9 4.7 1.3 7.2 1.3 2.6 0 5-.5 7.2-1.3 2.2-.9 4.2-2.1 5.9-3.6 1.7-1.5 3-3.4 4-5.6 1-2.2 1.5-4.7 1.5-7.4s-.5-5.1-1.5-7.4c-1-2.2-2.3-4.1-4-5.6-1.7-1.5-3.7-2.7-5.9-3.5-2.3-.8-4.6-1.201-7.2-1.201zm-191.7.201c-2.5 0-4.9.399-7.1 1.299-2.2.9-4.1 2.101-5.7 3.601-1.6 1.5-2.9 3.4-3.8 5.6-.9 2.2-1.4 4.7-1.4 7.4 0 2.8.4 5.3 1.4 7.5 1 2.2 2.3 4 4 5.5 1.7 1.5 3.7 2.599 5.9 3.399 2.2.8 4.6 1.201 7.1 1.201 3.4 0 6.4-.6 9-1.8 2.6-1.3 4.6-3 6.2-5.3l-7.7-4.8c-.8 1-1.8 1.9-3 2.5-1.2.7-2.7 1-4.4 1-1 0-2-.2-2.9-.5-.9-.3-1.8-.701-2.5-1.301s-1.3-1.2-1.8-2c-.4-.8-.7-1.7-.8-2.6h24.3c.1-.4.1-.899.1-1.299v-1.3c0-2.9-.4-5.4-1.3-7.6-.9-2.2-2-4.101-3.5-5.701-1.5-1.6-3.2-2.8-5.3-3.6-2.1-.8-4.3-1.199-6.8-1.199zm233.4 0c-2 0-3.8.5-5.4 1.6-1.5 1.1-2.7 2.499-3.6 4.199h-.1v-4.799h-10.6v33.299h11v-17.2c0-.6.1-1.4.4-2.3.3-.9.7-1.7 1.3-2.5.6-.7 1.4-1.399 2.4-1.899s2.2-.8 3.7-.8c.5 0 .9.1 1.4.1.4.1.9.2 1.4.3l.4-9.701c-.2-.1-.6-.2-1-.2-.4-.1-.9-.099-1.3-.099zm-190.8.1c-2.4 0-4.6.5-6.4 1.5-1.8 1-3.3 2.2-4.3 3.5h-.2v-4.1h-10.5v49.5h11v-19.8h.1c1 1.4 2.5 2.6 4.3 3.4 1.8.8 3.7 1.199 5.8 1.199 2.5 0 4.7-.5 6.7-1.5s3.6-2.299 5-3.899c1.3-1.7 2.4-3.6 3.1-5.7.7-2.1 1.1-4.4 1.1-6.7s-.4-4.5-.9-6.6c-.8-2.1-1.8-4.001-3.2-5.601-1.4-1.6-3-2.899-5-3.799-2-.9-4.2-1.4-6.6-1.4zm89.5.9v33.5h11v-33.5h-11zm105.6 0l14 32.9-1.1 2.8c-.5 1.4-1.1 2.5-1.9 3.3-.8.8-2 1.2-3.7 1.2-.6 0-1.2-.1-1.8-.2-.7-.1-1.3-.2-1.8-.4l-1.2 9.3c.9.2 1.8.4 2.9.5 1.1.1 2.2.2 3.2.2 2.1 0 4-.2 5.5-.7 1.5-.5 2.9-1.2 4-2.2 1.2-1 2.2-2.1 3-3.5.9-1.4 1.6-3 2.3-4.7l14.9-38.5h-11.7l-6.7 21.5h-.2l-7.5-21.5zm-237.4 6.5c2.2 0 3.8.6 4.9 1.9 1.1 1.3 1.6 2.8 1.6 4.5h-14.2c.1-.9.3-1.7.7-2.5.4-.7.9-1.4 1.6-2 .7-.6 1.5-1.1 2.4-1.4.9-.3 1.9-.5 3-.5zm39.4 1.5c1.3 0 2.4.2 3.4.7 1 .5 1.8 1.1 2.5 1.9.7.8 1.2 1.699 1.5 2.699.3 1.1.5 2.101.5 3.201s-.2 2.199-.5 3.299c-.4 1.1-.9 2-1.5 2.8-.7.8-1.5 1.401-2.5 1.901s-2.1.7-3.4.7c-1.3 0-2.4-.2-3.4-.7-1-.4-1.8-1.1-2.5-1.9-.7-.9-1.2-1.801-1.6-2.801-.4-1.1-.6-2.1-.6-3.2s.2-2.199.6-3.199c.4-1.1.9-2 1.6-2.8.7-.8 1.5-1.4 2.5-1.9s2.1-.7 3.4-.7zm40.5 0c1.3 0 2.4.2 3.4.7 1 .5 1.8 1.1 2.5 1.9.6.8 1.1 1.699 1.5 2.699.3 1.1.5 2.101.5 3.201s-.2 2.2-.5 3.2-.8 2-1.5 2.8c-.7.8-1.5 1.5-2.5 2s-2.1.7-3.4.7c-1.3 0-2.4-.2-3.4-.7-1-.5-1.8-1.2-2.5-2s-1.2-1.8-1.5-2.8c-.3-1.1-.5-2.1-.5-3.2s.2-2.201.5-3.201c.4-1 .9-1.9 1.5-2.7.7-.8 1.5-1.4 2.5-1.9s2.1-.699 3.4-.699zm111.6 0c1.3 0 2.4.2 3.4.7 1 .5 1.8 1.1 2.5 1.9.6.8 1.1 1.699 1.5 2.699.3 1.1.5 2.101.5 3.201s-.1 2.2-.5 3.2c-.3 1-.8 2-1.5 2.8-.7.8-1.5 1.5-2.5 2s-2.1.7-3.4.7c-1.3 0-2.4-.2-3.4-.7-1-.5-1.8-1.2-2.5-2s-1.2-1.8-1.5-2.8c-.3-1.1-.5-2.1-.5-3.2s.2-2.201.5-3.201c.4-1 .9-1.9 1.5-2.7.7-.8 1.5-1.4 2.5-1.9s2.1-.699 3.4-.699z" fill="#4c394f" fill-opacity=".941"/><path d="M55.6 145.949c3.4 1.5 6.6 1.8 6.6-3.2v-104.7c0-2.2-.8-2.6-2.5-3.3-.7-.4-45.8-20-46.9-20.5-1.1-.5-.5-1.4.8-1.9 2.2-.8 10.9-3.8 11.9-4.1 1.4-.5 3.2-.5 5.1.3 4.2 1.8 37.7 16.4 40.6 17.7 3 1.3 3.5 2.1 3.5 4.5v92.2s-.3 1.7 1.5 1.7h5.4c1.5 0 1.3-1.5 1.3-1.5v-95.5c0-3.9-.1-4.8-3.2-6.1 0 0-42.9-18.8-47-20.6-2.6-1.1-5.7-1.3-8.5-.3-3.1 1.1-20.6 7.3-20.6 7.3-2.8 1-3.6 2.8-3.6 5.3v103.4c0 1.3 0 1.9 1 2.7z" fill="#00bdd7"/></svg>